<?xml version="1.0" encoding="utf-8"?>
<!-- Generator: Adobe Illustrator 25.0.1, SVG Export Plug-In . SVG Version: 6.00 Build 0)  -->
<svg version="1.0" id="Layer_1" xmlns="http://www.w3.org/2000/svg" xmlns:xlink="http://www.w3.org/1999/xlink" x="0px" y="0px"
	 viewBox="0 0 1040 825.5" style="enable-background:new 0 0 1040 825.5;" xml:space="preserve">
<style type="text/css">
	.st0{fill:#FFFFFF;}
</style>
<path d="M399,281.3c75.3-40.5,159.4-43.7,234.9-1.8C566.5,133.6,730.2,46,831.4,149.9c98.5,101.2,12.7,267.6-120.6,217.7
	c29.7,48.9,47.2,122.6,23.9,177.2c7,51.6-56.8,144.4-158.2,158.4c-22,24.4-74.7,72.8-143.3-5.6C337.8,686,256.5,569.1,291,526
	c-16.5-59.2,13.7-142.6,39-175.6c-95.9,41.4-209.5-71-145.2-194.2C263.4,5.7,477.3,116,399,281.3z"/>
<path class="st0" d="M521.8,301.8c8.7-20.6,35.3-50.9,87.6-24.7c59.7,29.9,90.9,146.7,27,212.5c41.8-11.5,89.4,22.6,89.5,66.6
	c0.4,51-64.5,123.8-143.3,139.4c3.7-3.8,17.6-18.7,15.3-23.1c-89,101-125,54.3-179.6,2.2c-0.5,4.7,6.8,13.3,10.2,16.5
	c-59.7-19.8-108-58-130.7-114.6c-19.6-53.8,26-97.9,87.7-84.9C317.9,401.6,372,289.2,453,265.4C500,251.5,517.6,292.8,521.8,301.8z"
	/>
<path d="M496.7,473.5c5.8-1.2,23.8-2.1,30.6-1C519.5,418,534,332.6,564,335.2c26.4,2.3,39.3,88-1,145.1c7.8,4.8,18.6,10.5,23.9,19.2
	c-53-34.6-115.5-17.7-151.8,1.4c3.6-7.5,18.4-12.8,28.4-18.5c-35.2-46.6-18.6-145.6,14.8-148C508.5,332,511.3,435.2,496.7,473.5z"/>
<path class="st0" d="M497,443.6c-6.2-47.1-46.3-0.6-23.5,34.8c-1.3,0.8-3.8,0.9-5.5,1.8c-32.1-43.6-14.7-140.8,9.4-141.2
	S502,433.5,497,443.6z M563.5,340.4c18.7,0.4,32.7,88.5-5.1,138.1c-1.5-0.3-3.4-1.2-5.1-1.7c20.9-55.3-16.9-66.4-22-30.4
	C528.5,415.9,542.6,339.9,563.5,340.4L563.5,340.4z"/>
<path d="M383.6,530.3c-7.7,5.5-18.6,8.9-26.3,15.5c39.5,94.1,210.1,137.9,313.1-1.9c-10.5-8.4-21.5-10-33.4-13.8
	c23.7-6.4,59,15.9,58.3,36.7c-5.3-5.8-12.2-15.8-21.9-20.7C658.3,569.4,639,588,618.3,605c-31.1,42.5-54.1,105.9-107.2,111.7
	c-61.1,6.6-95.9-88.1-111.9-108.8c-18.8-16.1-34.9-34.8-46.2-57.8c-9.7,8.4-13.4,15.9-20.4,23.5
	C330.6,557.1,357.7,528.7,383.6,530.3L383.6,530.3z"/>
<path d="M510.6,492.7c91.5-0.9,84,82.3,2.1,87C419.8,585,418.4,493.6,510.6,492.7z"/>
<path class="st0" d="M511.9,671.8c0.1,0.3-13.2,11.3-14.3,20.2c31.5-34.1,65.7-19.7,68-18.8c-22.6,35.3-74.5,58-112.4,6.1
	C456.4,670.8,486.8,649.8,511.9,671.8L511.9,671.8z"/>
</svg>
