<?xml version="1.0" encoding="utf-8"?>
<!-- Generator: Adobe Illustrator 27.5.0, SVG Export Plug-In . SVG Version: 6.00 Build 0)  -->
<svg version="1.1" id="katman_1" xmlns="http://www.w3.org/2000/svg" xmlns:xlink="http://www.w3.org/1999/xlink" x="0px" y="0px"
	 viewBox="0 0 841.89 595.28" style="enable-background:new 0 0 841.89 595.28;" xml:space="preserve">
<path d="M594.44,313.42c-21.86-21.79-54.59-27.73-86.14-33.54l92.85-29.25l-15.22-44.61L428.05,257.4v65.63
	c45.39-0.42,98.66,0.97,131.87,22.41c-36.04,22.48-87.03,22.48-130.76,22.48v47.58h13.49c57.63,0.48,174.48-13.35,165.97-74.48
	C607.17,330.5,601.98,320.89,594.44,313.42z M362.39,415.43h47.18V248.76h-47.18V415.43z M740.15,343.3
	c-23.11,0-47.67,6.02-68.91,17.43l0.21-131.68l-47.18-0.07l-0.28,166.81l43.86,24.34c26.63-23.45,64.82-37.69,99.07-24.97v-49.03
	C758.27,344.2,749.28,343.3,740.15,343.3z M309.74,234.86l-29.47,96.41c-6.23-56.57-23.11-105.81-65.24-105.81
	s-59.01,49.24-65.24,105.81l-29.54-96.41l-45.11,13.83L126.2,415.5h66.21c-0.07-26,0.07-56.09,4.43-84.24
	c5.26-33.89,15.15-51.52,18.2-56.16c3.04,4.56,12.94,22.27,18.2,56.16c4.36,28.08,4.5,58.16,4.43,84.24h66.21l51.06-166.81
	L309.74,234.86z M385.99,174.69c-17.16,0-31.06,13.9-31.06,31.05c0,17.15,13.91,31.05,31.06,31.05c17.16,0,31.06-13.9,31.06-31.05
	C417.05,188.59,403.14,174.69,385.99,174.69z"/>
</svg>
